<svg width="180" height="52" viewBox="0 0 180 52" fill="none" xmlns="http://www.w3.org/2000/svg">
<g clip-path="url(#clip0_132_234)">
<path fill-rule="evenodd" clip-rule="evenodd" d="M23.474 16.811L12 22.6603V34.2553L23.474 28.7111V40.4788L35 46V5.52115L23.474 0V16.811Z" fill="url(#paint0_linear_132_234)"/>
<path d="M0 46.5279L12 52V34.9338L0 29V46.5279Z" fill="url(#paint1_linear_132_234)"/>
<path d="M0 6V29L12 23.3416V11.577L0 6Z" fill="url(#paint2_linear_132_234)"/>
<path fill-rule="evenodd" clip-rule="evenodd" d="M176.79 29.4475H169.767C169.707 29.8619 169.683 30.1712 169.707 30.3755C169.743 30.7432 169.972 30.9767 170.394 31.07C170.551 31.1051 170.9 31.1226 171.455 31.1226H178.676L178.345 34H169.773C168.441 34 167.525 33.8833 167 33.644C166.422 33.3872 166.09 32.8794 166.018 32.1206C165.982 31.7354 166 31.2276 166.078 30.5973L166.711 25.3969C166.85 24.1829 167.272 23.3132 167.977 22.7879C168.682 22.2626 169.749 22 171.196 22H176.223C177.555 22 178.49 22.1284 179.044 22.3852C179.593 22.642 179.906 23.1498 179.985 23.9027C180.021 24.2879 179.991 24.7782 179.924 25.3969L179.731 27.1654C179.569 28.5661 178.447 29.4475 176.778 29.4475H176.79ZM170.683 26.5817H176.374C176.44 26.0447 176.47 25.7588 176.464 25.7296C176.41 25.1751 175.928 24.9008 175.005 24.9008H172.196C171.419 24.9008 170.913 24.9825 170.671 25.1576C170.382 25.3794 170.189 25.8521 170.099 26.5875H170.683V26.5817Z" fill="#191919"/>
<path fill-rule="evenodd" clip-rule="evenodd" d="M165.968 30.5948C165.8 32 165.429 32.9155 164.847 33.3528C164.265 33.7843 163.15 34 161.506 34H152L152.348 31.1254H161.44C161.86 31.1254 162.184 31.0262 162.418 30.828C162.652 30.6297 162.754 30.4082 162.73 30.1633C162.682 29.7085 162.316 29.481 161.632 29.481H156.414C155.269 29.481 154.375 29.2303 153.745 28.7347C153.224 28.3207 152.936 27.7901 152.87 27.1429C152.852 26.9563 152.852 26.7813 152.87 26.6181L153.038 25.3878C153.206 23.9883 153.583 23.0729 154.165 22.6472C154.741 22.2157 155.856 22 157.506 22H167L166.646 24.8921H157.794C157.338 24.8921 156.984 24.9971 156.732 25.207C156.468 25.4169 156.354 25.6501 156.378 25.9125C156.426 26.3848 156.828 26.6181 157.578 26.6181H163.072C164.889 26.6181 165.878 27.4402 166.04 29.0904C166.07 29.3878 166.076 29.691 166.052 30.0058L165.962 30.6064L165.968 30.5948Z" fill="#191919"/>
<path fill-rule="evenodd" clip-rule="evenodd" d="M147.333 34H146.277L146.46 32.5233C145.915 33.5039 145.117 34 144.067 34H140.554C139.286 34 138.402 33.8774 137.891 33.6265C137.381 33.3755 137.088 32.8794 137.019 32.1206C136.985 31.7354 136.996 31.2276 137.059 30.5973L138.023 22H141.347L140.514 29.4475C140.474 29.8619 140.463 30.1712 140.48 30.3755C140.514 30.7432 140.727 30.9767 141.111 31.07C141.26 31.1051 141.593 31.1226 142.121 31.1226H144.796C145.565 31.1226 146.07 31.035 146.305 30.8599C146.546 30.6848 146.713 30.2121 146.799 29.4475L147.631 22H151L149.915 31.6595C149.709 33.1595 149.077 34 147.327 34H147.333Z" fill="#191919"/>
<path fill-rule="evenodd" clip-rule="evenodd" d="M135.317 30.5914C135.147 31.9981 134.784 32.9144 134.21 33.3521C133.636 33.784 132.541 34 130.936 34H125.641C124.347 34 123.445 33.8716 122.917 33.6148C122.39 33.358 122.092 32.8619 122.021 32.1206C121.98 31.7179 121.998 31.2101 122.08 30.5973L122.671 25.3969C122.841 23.9961 123.204 23.0798 123.784 22.6479C124.358 22.216 125.442 22 127.035 22H132.33C133.624 22 134.532 22.1284 135.065 22.3852C135.598 22.642 135.903 23.144 135.979 23.8794C136.02 24.2821 136.002 24.784 135.92 25.3969L135.329 30.5973L135.317 30.5914ZM132.043 29.4416L132.382 26.5525C132.435 26.1498 132.447 25.8521 132.429 25.6479C132.394 25.2802 132.177 25.0525 131.773 24.9533C131.603 24.8949 131.252 24.8716 130.713 24.8716H127.984C127.217 24.8716 126.719 24.9475 126.496 25.0992C126.233 25.2977 126.051 25.7763 125.963 26.5525L125.623 29.4416C125.577 29.8444 125.565 30.142 125.588 30.3463C125.623 30.7315 125.84 30.9591 126.233 31.0409C126.385 31.0934 126.73 31.1167 127.269 31.1167H129.999C130.783 31.1167 131.299 31.0292 131.539 30.8541C131.785 30.679 131.955 30.2062 132.043 29.4416Z" fill="#191919"/>
<path fill-rule="evenodd" clip-rule="evenodd" d="M122 18L120.128 34H116.673L117.406 27.6281H111.193L110.443 34H107L108.848 18H112.303L111.589 24.3369H117.807L118.528 18H122Z" fill="#191919"/>
<path fill-rule="evenodd" clip-rule="evenodd" d="M101.966 33.9942H98.6431L99.4739 26.5594C99.5255 26.1573 99.5369 25.8602 99.5197 25.6562C99.4853 25.2717 99.2676 25.0444 98.878 24.9629C98.7233 24.9046 98.391 24.8813 97.8753 24.8813L93.3718 24.8929L93.1941 26.5652L92.3633 34H89L90.8335 18H94.1739L93.5437 23.5178C94.088 22.5215 94.8787 22.0204 95.9272 22.0204H99.4395C100.7 22.0204 101.588 22.1486 102.104 22.405C102.619 22.6613 102.912 23.1624 102.98 23.8966C103.021 24.2986 102.998 24.7997 102.923 25.4115L101.966 34V33.9942Z" fill="#191919"/>
<path fill-rule="evenodd" clip-rule="evenodd" d="M87.9684 30.5948C87.8005 32 87.4286 32.9155 86.8469 33.3528C86.2651 33.7843 85.1495 34 83.5062 34H74L74.3479 31.1254H83.4402C83.8601 31.1254 84.1839 31.0262 84.4178 30.828C84.6517 30.6297 84.7537 30.4082 84.7297 30.1633C84.6817 29.7085 84.3159 29.481 83.6321 29.481H78.4142C77.2687 29.481 76.375 29.2303 75.7453 28.7347C75.2235 28.3207 74.9356 27.7901 74.8697 27.1429C74.8517 26.9563 74.8517 26.7813 74.8697 26.6181L75.0376 25.3878C75.2055 23.9883 75.5834 23.0729 76.1651 22.6472C76.7409 22.2157 77.8565 22 79.5058 22H89L88.6461 24.8921H79.7937C79.3379 24.8921 78.984 24.9971 78.7321 25.207C78.4682 25.4169 78.3543 25.6501 78.3782 25.9125C78.4262 26.3848 78.8281 26.6181 79.5778 26.6181H85.0716C86.8888 26.6181 87.8784 27.4402 88.0404 29.0904C88.0704 29.3878 88.0764 29.691 88.0524 30.0058L87.9624 30.6064L87.9684 30.5948Z" fill="#191919"/>
<path fill-rule="evenodd" clip-rule="evenodd" d="M72.906 33.9942H63.7745C62.4433 33.9942 61.5217 33.8716 61.0037 33.6148C60.4255 33.358 60.1002 32.856 60.0219 32.1148C59.9797 31.7121 59.9978 31.2043 60.0821 30.5914L60.1664 29.9436C60.3351 28.5428 60.7146 27.6265 61.3049 27.2004C61.8952 26.7685 63.0095 26.5525 64.6479 26.5525H70.2617C70.3099 26.1498 70.3219 25.8521 70.2978 25.6479C70.2617 25.2802 70.0388 25.0525 69.6352 24.9533C69.4606 24.8949 69.0992 24.8716 68.545 24.8716H61.3229L61.6783 22H70.2195C71.5507 22 72.4843 22.1284 73.0385 22.3852C73.5866 22.642 73.8998 23.144 73.9781 23.8794C74.0203 24.2821 74.0022 24.784 73.9179 25.3969L72.912 34L72.906 33.9942ZM69.6051 29.4183H64.5997C64.2684 29.4183 64.0094 29.5292 63.8227 29.7451C63.6299 29.9611 63.5456 30.2062 63.5757 30.4689C63.6179 30.9008 63.8949 31.1167 64.4129 31.1167H69.7256L69.9304 29.4183H69.6111H69.6051Z" fill="#191919"/>
<path fill-rule="evenodd" clip-rule="evenodd" d="M60 18L58.1331 34H54.6711L55.4096 27.593H49.1946L48.4443 34H45L46.8432 18H50.3052L49.5904 24.3135H55.8172L56.5321 18H60Z" fill="#191919"/>
<path fill-rule="evenodd" clip-rule="evenodd" d="M97.8117 22H91L91.1946 24H98L97.8117 22Z" fill="#191919"/>
<path fill-rule="evenodd" clip-rule="evenodd" d="M142.179 34H148L147.827 32H142L142.179 34Z" fill="#191919"/>
</g>
<defs>
<linearGradient id="paint0_linear_132_234" x1="23.5029" y1="2.27409" x2="23.5029" y2="38.4869" gradientUnits="userSpaceOnUse">
<stop stop-color="#4CFADC"/>
<stop offset="0.97" stop-color="#258CE5"/>
</linearGradient>
<linearGradient id="paint1_linear_132_234" x1="6" y1="23.7673" x2="6" y2="38.8327" gradientUnits="userSpaceOnUse">
<stop stop-color="#4CFADC"/>
<stop offset="0.86" stop-color="#258CE5"/>
</linearGradient>
<linearGradient id="paint2_linear_132_234" x1="6" y1="15.2" x2="6" y2="32.8731" gradientUnits="userSpaceOnUse">
<stop stop-color="#4CFADC"/>
<stop offset="0.78" stop-color="#258CE5"/>
</linearGradient>
<clipPath id="clip0_132_234">
<rect width="180" height="52" fill="white"/>
</clipPath>
</defs>
</svg>
